<svg width="100.000000" height="20.000000" viewBox="0 0 100 20" fill="none" xmlns="http://www.w3.org/2000/svg" xmlns:xlink="http://www.w3.org/1999/xlink">
	<desc>
			Created with Pixso.
	</desc>
	<defs/>
	<path id="logo" d="M72.25 9.51L72.25 17.52C72.03 17.82 71.7 18.16 71.27 18.55C70.85 18.94 70.29 19.27 69.59 19.57C68.91 19.85 68.07 20 67.09 20Q65.79 20 64.73 19.5Q64.72 19.49 64.71 19.49C64 19.15 63.39 18.64 62.88 17.95C62.38 17.26 61.99 16.39 61.73 15.36Q61.33 13.8 61.33 11.66L61.33 8.35Q61.33 6.23 61.7 4.67C61.96 3.62 62.34 2.75 62.83 2.05C63.32 1.36 63.9 0.84 64.58 0.5C65.26 0.16 66.03 0 66.89 0C68.07 0 69.04 0.24 69.8 0.73C70.56 1.22 71.14 1.95 71.53 2.91C71.93 3.87 72.16 5.05 72.24 6.45L69.18 6.45C69.13 5.63 69.02 4.99 68.85 4.52C68.68 4.06 68.45 3.73 68.15 3.54C67.84 3.33 67.45 3.23 66.97 3.23C66.55 3.23 66.19 3.32 65.88 3.51C65.57 3.69 65.31 3.98 65.1 4.39C64.89 4.8 64.73 5.33 64.63 5.97C64.53 6.61 64.48 7.39 64.48 8.32L64.48 11.66C64.48 12.58 64.54 13.36 64.65 14.01C64.77 14.66 64.94 15.19 65.16 15.6C65.39 16.01 65.68 16.31 66.03 16.49C66.38 16.67 66.79 16.76 67.27 16.76C67.65 16.76 67.96 16.71 68.19 16.61C68.42 16.52 68.6 16.41 68.74 16.31C68.88 16.19 69 16.1 69.1 16.04L69.1 12.46L66.84 12.46L66.84 9.51L72.25 9.51ZM7.13 14.61C7.13 14.26 7.1 13.95 7.05 13.66C7 13.38 6.9 13.11 6.73 12.87C6.57 12.63 6.34 12.39 6.03 12.15C5.72 11.91 5.33 11.66 4.84 11.4C4.25 11.1 3.69 10.78 3.14 10.44C2.59 10.1 2.1 9.69 1.66 9.24Q1.59 9.17 1.52 9.09Q0.96 8.46 0.61 7.64Q0.23 6.7 0.23 5.45Q0.23 4.22 0.59 3.21Q0.96 2.21 1.63 1.5Q1.99 1.11 2.42 0.82Q2.79 0.57 3.19 0.4Q4.1 0.01 5.22 0.01Q6.44 0.01 7.39 0.51L7.39 0.51Q7.62 0.63 7.83 0.78Q8.06 0.94 8.27 1.12Q9.07 1.83 9.55 2.91Q10.17 4.26 10.17 6.01L7.01 6.01C7.01 5.45 6.95 4.97 6.82 4.55Q6.63 3.91 6.22 3.55Q6.15 3.49 6.07 3.43L6.07 3.43Q5.7 3.19 5.16 3.19Q4.61 3.19 4.23 3.44L4.23 3.44Q4.19 3.47 4.16 3.5C3.9 3.69 3.7 3.96 3.57 4.31Q3.39 4.82 3.39 5.46C3.39 5.78 3.45 6.07 3.57 6.33C3.7 6.58 3.88 6.8 4.1 7.01C4.33 7.2 4.59 7.4 4.89 7.58C5.2 7.77 5.54 7.95 5.91 8.13Q6.98 8.65 7.8 9.28C8.35 9.69 8.81 10.15 9.17 10.67C9.54 11.18 9.82 11.75 10 12.39C10.19 13.03 10.29 13.76 10.29 14.58C10.29 15.39 10.17 16.13 9.94 16.8C9.72 17.46 9.39 18.03 8.96 18.51C8.52 18.98 8 19.35 7.39 19.61Q6.48 20 5.36 20C4.63 20 3.94 19.87 3.29 19.62C2.64 19.36 2.07 18.98 1.57 18.46C1.08 17.93 0.7 17.27 0.42 16.47Q0 15.25 0 13.6L3.16 13.6C3.16 14.18 3.21 14.69 3.3 15.11Q3.44 15.72 3.74 16.09Q3.89 16.28 4.08 16.43Q4.25 16.55 4.45 16.64C4.74 16.76 5.06 16.82 5.43 16.82C5.85 16.82 6.18 16.72 6.43 16.52C6.68 16.33 6.86 16.06 6.97 15.73Q7.13 15.24 7.13 14.61ZM19.5 0.28L22.65 0.28L22.65 13.64C22.65 15.13 22.43 16.35 21.98 17.3C21.54 18.23 20.93 18.92 20.16 19.35Q20.11 19.38 20.07 19.4Q20.07 19.4 20.07 19.4Q18.93 20 17.49 20C16.48 20 15.58 19.78 14.79 19.35Q14.62 19.26 14.46 19.15Q13.52 18.49 12.96 17.3C12.52 16.35 12.31 15.13 12.31 13.64L12.31 0.28L15.46 0.28L15.46 13.64C15.46 14.48 15.54 15.13 15.69 15.59C15.85 16.04 16.08 16.35 16.37 16.52C16.67 16.68 17.05 16.76 17.49 16.76C17.93 16.76 18.3 16.68 18.59 16.52C18.88 16.35 19.11 16.04 19.26 15.59C19.42 15.13 19.5 14.48 19.5 13.64L19.5 0.28ZM30.43 12.87L28.23 12.87L28.23 19.73L25.07 19.73L25.07 0.28L30.43 0.28Q31.7 0.28 32.69 0.8Q32.94 0.94 33.17 1.1C33.93 1.66 34.52 2.42 34.92 3.39C35.33 4.35 35.54 5.45 35.54 6.7C35.54 7.96 35.33 9.05 34.92 9.97C34.52 10.89 33.93 11.6 33.17 12.11Q33.06 12.18 32.95 12.25L32.95 12.25Q31.88 12.87 30.43 12.87ZM40.05 3.52L40.05 8.16L44.99 8.16L44.99 11.3L40.05 11.3L40.05 16.49L45.91 16.49L45.91 19.73L36.88 19.73L36.88 0.28L45.89 0.28L45.89 3.52L40.05 3.52ZM48.54 0.28L53.59 0.28C54.64 0.28 55.54 0.5 56.28 0.94C57.02 1.39 57.59 2.05 57.99 2.92C58.39 3.79 58.58 4.87 58.58 6.15C58.58 7.2 58.47 8.1 58.24 8.85C58.01 9.59 57.68 10.21 57.25 10.71C56.97 11.04 56.65 11.32 56.3 11.56L59.07 19.54L59.07 19.73L55.69 19.73L53.31 12.59L51.71 12.59L51.71 19.73L48.54 19.73L48.54 0.28ZM76.1 0.28L78.49 9.04L80.87 0.28L84.32 0.28L80.08 12.66L80.08 19.73L76.89 19.73L76.89 12.66L72.66 0.28L76.1 0.28ZM85.78 0.28L89.68 0.28L92.89 13.58L96.09 0.28L100 0.28L100 19.73L96.95 19.73L96.95 13.1L97.15 6.34L94.07 19.73L91.7 19.73L88.66 7.37L88.84 13.1L88.84 19.73L85.78 19.73L85.78 0.28ZM28.23 9.63L30.43 9.63C30.88 9.63 31.25 9.5 31.53 9.25C31.81 9 32.02 8.66 32.15 8.22Q32.35 7.56 32.35 6.73C32.35 6.17 32.28 5.65 32.14 5.17C32.01 4.68 31.81 4.28 31.53 3.98C31.25 3.67 30.89 3.52 30.43 3.52L28.23 3.52L28.23 9.63ZM51.71 9.35L53.5 9.35C53.93 9.35 54.29 9.23 54.57 9C54.86 8.76 55.07 8.43 55.21 8Q55.43 7.34 55.43 6.47C55.43 5.86 55.36 5.33 55.23 4.9Q55.05 4.23 54.64 3.88Q54.57 3.83 54.5 3.78L54.5 3.78Q54.13 3.52 53.59 3.52L51.71 3.52L51.71 9.35Z" fill="#FFFFFF" fill-opacity="1.000000" fill-rule="evenodd"/>
</svg>
