<svg width="130.000000" height="26.000000" viewBox="0 0 130 26" fill="none" xmlns="http://www.w3.org/2000/svg" xmlns:xlink="http://www.w3.org/1999/xlink">
	<desc>
			Created with Pixso.
	</desc>
	<defs/>
	<path id="logo" d="M93.93 12.36L93.93 22.78C93.64 23.16 93.22 23.61 92.65 24.12C92.1 24.62 91.37 25.06 90.47 25.44C89.58 25.81 88.5 26 87.21 26C86.08 26 85.05 25.78 84.12 25.34C83.2 24.9 82.41 24.23 81.75 23.34C81.09 22.43 80.59 21.31 80.24 19.97C79.9 18.61 79.72 17.01 79.72 15.16L79.72 10.85C79.72 9.02 79.89 7.43 80.22 6.07C80.55 4.71 81.04 3.57 81.68 2.67C82.31 1.77 83.07 1.09 83.95 0.65C84.84 0.21 85.85 0 86.96 0C88.5 0 89.76 0.31 90.74 0.95Q90.97 1.09 91.18 1.26Q92.35 2.19 92.99 3.78C93.51 5.03 93.81 6.57 93.92 8.38L89.94 8.38C89.88 7.32 89.73 6.48 89.51 5.88C89.29 5.28 88.99 4.85 88.59 4.6Q88 4.2 87.06 4.2C86.52 4.2 86.04 4.32 85.64 4.56C85.24 4.79 84.9 5.18 84.63 5.71C84.36 6.24 84.16 6.92 84.02 7.76C83.89 8.59 83.83 9.61 83.83 10.82L83.83 15.16C83.83 16.35 83.9 17.37 84.05 18.21C84.2 19.06 84.42 19.75 84.71 20.28C85.01 20.81 85.39 21.2 85.84 21.44C86.3 21.68 86.84 21.79 87.45 21.79C87.95 21.79 88.35 21.73 88.65 21.6C88.95 21.47 89.19 21.34 89.36 21.2C89.55 21.05 89.71 20.94 89.83 20.85L89.83 16.2L86.89 16.2L86.89 12.36L93.93 12.36ZM9.27 19C9.27 18.54 9.24 18.13 9.17 17.76C9.11 17.39 8.97 17.05 8.75 16.74C8.54 16.43 8.24 16.11 7.84 15.8C7.44 15.49 6.93 15.16 6.29 14.83Q5.15 14.24 4.08 13.58C3.37 13.13 2.73 12.6 2.16 12.01Q2.07 11.92 1.98 11.82Q1.25 11 0.8 9.93Q0.3 8.71 0.3 7.08Q0.3 5.48 0.77 4.18Q1.25 2.88 2.12 1.96Q2.59 1.45 3.15 1.06L3.15 1.06Q3.62 0.75 4.15 0.52Q5.33 0.01 6.78 0.01Q8.37 0.01 9.61 0.67Q9.91 0.83 10.18 1.02Q10.48 1.23 10.75 1.46Q11.79 2.39 12.42 3.78Q13.22 5.54 13.22 7.81L9.12 7.81Q9.12 6.73 8.86 5.92Q8.62 5.08 8.09 4.61Q8 4.53 7.89 4.47Q7.41 4.15 6.71 4.15Q6 4.15 5.5 4.48Q5.45 4.51 5.41 4.55Q5.35 4.58 5.31 4.63Q4.87 5 4.65 5.6Q4.41 6.26 4.41 7.1C4.41 7.52 4.49 7.89 4.65 8.23C4.82 8.55 5.04 8.85 5.33 9.11C5.63 9.37 5.97 9.62 6.36 9.86C6.76 10.1 7.2 10.34 7.68 10.57Q9.07 11.25 10.14 12.07Q11.21 12.86 11.93 13.87C12.4 14.53 12.76 15.28 13.01 16.11C13.25 16.95 13.37 17.9 13.37 18.96C13.37 20.01 13.22 20.98 12.92 21.84C12.63 22.7 12.21 23.44 11.64 24.07C11.08 24.68 10.4 25.16 9.61 25.49Q8.43 26 6.96 26Q5.77 26 4.68 25.65Q4.48 25.59 4.28 25.51Q3.84 25.33 3.43 25.09Q2.68 24.65 2.05 24C1.41 23.31 0.91 22.45 0.54 21.41Q0 19.83 0 17.68L4.11 17.68C4.11 18.44 4.17 19.09 4.3 19.64C4.42 20.17 4.6 20.6 4.86 20.92C5.11 21.24 5.42 21.47 5.78 21.64Q6.35 21.86 7.06 21.86C7.61 21.86 8.04 21.73 8.36 21.48C8.68 21.22 8.92 20.88 9.06 20.45C9.2 20.03 9.27 19.54 9.27 19ZM25.35 0.36L29.45 0.36L29.45 17.73Q29.45 20.65 28.58 22.49C28.01 23.7 27.21 24.59 26.2 25.16C25.19 25.72 24.03 25.99 22.73 25.99C21.42 25.99 20.25 25.72 19.23 25.16C18.21 24.59 17.42 23.7 16.84 22.49Q16 20.65 16 17.73L16 0.36L20.1 0.36L20.1 17.73Q20.1 19.38 20.4 20.26Q20.71 21.15 21.28 21.48C21.68 21.69 22.16 21.79 22.73 21.79C23.31 21.79 23.79 21.69 24.17 21.48Q24.74 21.15 25.04 20.26Q25.35 19.38 25.35 17.73L25.35 0.36ZM39.57 16.74L36.7 16.74L36.7 25.65L32.6 25.65L32.6 0.36L39.57 0.36Q41.22 0.36 42.5 1.05Q42.82 1.22 43.12 1.44C44.12 2.15 44.87 3.14 45.4 4.41Q46.2 6.28 46.2 8.71Q46.2 11.16 45.4 12.97C44.87 14.16 44.12 15.09 43.12 15.75Q42.98 15.84 42.84 15.92L42.84 15.92Q41.44 16.74 39.57 16.74ZM52.06 4.58L52.06 10.61L58.49 10.61L58.49 14.69L52.06 14.69L52.06 21.44L59.68 21.44L59.68 25.65L47.95 25.65L47.95 0.36L59.65 0.36L59.65 4.58L52.06 4.58ZM63.1 0.36L69.67 0.36C71.04 0.36 72.2 0.65 73.17 1.23C74.13 1.81 74.87 2.66 75.39 3.8Q76.16 5.5 76.16 8C76.16 9.37 76.01 10.54 75.71 11.51C75.41 12.47 74.98 13.28 74.43 13.92C74.06 14.35 73.65 14.71 73.19 15.02L76.79 25.4L76.79 25.65L72.39 25.65L69.31 16.37L67.22 16.37L67.22 25.65L63.1 25.65L63.1 0.36ZM98.92 0.36L102.05 11.75L105.14 0.36L109.62 0.36L104.11 16.46L104.11 25.65L99.96 25.65L99.96 16.46L94.46 0.36L98.92 0.36ZM111.52 0.36L116.59 0.36L120.76 17.66L124.92 0.36L130 0.36L130 25.65L126.03 25.65L126.03 17.03L126.3 8.24L122.29 25.65L119.22 25.65L115.26 9.59L115.49 17.03L115.49 25.65L111.52 25.65L111.52 0.36ZM36.7 12.52L39.57 12.52C40.15 12.52 40.62 12.36 40.99 12.03C41.36 11.71 41.63 11.26 41.8 10.69C41.97 10.11 42.05 9.47 42.05 8.75C42.05 8.02 41.97 7.34 41.79 6.72C41.62 6.08 41.35 5.56 40.99 5.17Q40.8 4.97 40.58 4.84Q40.15 4.58 39.57 4.58L36.7 4.58L36.7 12.52ZM67.22 12.15L69.56 12.15C70.12 12.15 70.58 12 70.95 11.7Q71.51 11.23 71.78 10.4C71.96 9.83 72.06 9.17 72.06 8.42C72.06 7.62 71.97 6.94 71.8 6.37C71.64 5.79 71.39 5.35 71.03 5.05C70.68 4.74 70.23 4.58 69.67 4.58L67.22 4.58L67.22 12.15Z" fill="#FFFFFF" fill-opacity="1.000000" fill-rule="evenodd"/>
</svg>
