<svg width="110.000000" height="22.000000" viewBox="0 0 110 22" fill="none" xmlns="http://www.w3.org/2000/svg" xmlns:xlink="http://www.w3.org/1999/xlink">
	<desc>
			Created with Pixso.
	</desc>
	<defs/>
	<path id="logo" d="M79.48 10.46L79.48 19.28C79.23 19.6 78.87 19.98 78.4 20.41C77.93 20.83 77.32 21.2 76.55 21.52C75.8 21.84 74.88 22 73.8 22C72.84 22 71.96 21.81 71.18 21.44C70.4 21.06 69.73 20.5 69.17 19.75C68.62 18.98 68.19 18.03 67.9 16.9Q67.46 15.18 67.46 12.82L67.46 9.18Q67.46 6.86 67.87 5.14C68.16 3.98 68.57 3.02 69.11 2.26C69.65 1.49 70.29 0.93 71.04 0.55C71.79 0.18 72.64 0 73.58 0C74.88 0 75.95 0.26 76.78 0.8C77.62 1.34 78.26 2.14 78.68 3.2C79.12 4.26 79.38 5.56 79.47 7.09L76.1 7.09C76.05 6.19 75.92 5.49 75.73 4.98C75.55 4.47 75.29 4.1 74.96 3.89C74.63 3.66 74.2 3.55 73.67 3.55C73.21 3.55 72.81 3.65 72.46 3.86C72.12 4.06 71.84 4.38 71.61 4.83C71.38 5.28 71.21 5.86 71.1 6.56Q70.93 7.62 70.93 9.15L70.93 12.82Q70.93 14.34 71.12 15.41C71.25 16.13 71.43 16.71 71.68 17.16C71.93 17.61 72.25 17.94 72.63 18.14C73.02 18.34 73.48 18.44 74 18.44C74.42 18.44 74.76 18.38 75.01 18.28C75.26 18.17 75.46 18.06 75.62 17.94C75.77 17.81 75.9 17.71 76.01 17.65L76.01 13.71L73.52 13.71L73.52 10.46L79.48 10.46ZM7.84 16.07C7.84 15.69 7.81 15.34 7.76 15.03C7.7 14.72 7.59 14.43 7.4 14.16C7.23 13.9 6.97 13.63 6.63 13.37Q6.13 12.97 5.32 12.55C4.68 12.21 4.06 11.86 3.45 11.49Q2.59 10.94 1.89 10.23L1.89 10.23L1.89 10.23Q1.86 10.2 1.83 10.16Q1.75 10.08 1.67 10Q1.05 9.3 0.67 8.4Q0.26 7.37 0.26 5.99Q0.26 4.64 0.65 3.54Q1.05 2.43 1.79 1.66Q2.19 1.22 2.67 0.9Q3.07 0.63 3.51 0.44Q4.51 0.01 5.74 0.01Q7.08 0.01 8.13 0.57Q8.38 0.7 8.62 0.86Q8.87 1.04 9.09 1.24L9.09 1.24Q9.98 2.02 10.51 3.2Q11.18 4.68 11.18 6.61L7.71 6.61C7.71 6 7.64 5.47 7.5 5.01C7.36 4.54 7.15 4.17 6.84 3.9Q6.77 3.84 6.68 3.78Q6.27 3.51 5.68 3.51Q5.07 3.51 4.65 3.79Q4.61 3.82 4.57 3.85Q4.53 3.88 4.49 3.91L4.49 3.91Q4.12 4.23 3.93 4.74Q3.73 5.3 3.73 6.01Q3.73 6.53 3.93 6.96Q4.14 7.37 4.51 7.71Q4.88 8.03 5.38 8.34C5.72 8.55 6.1 8.75 6.5 8.94Q7.68 9.52 8.58 10.21C9.18 10.66 9.69 11.17 10.09 11.74C10.49 12.3 10.8 12.93 11.01 13.63C11.21 14.34 11.31 15.14 11.31 16.04Q11.31 17.38 10.93 18.48C10.69 19.21 10.33 19.83 9.85 20.36C9.38 20.88 8.8 21.28 8.13 21.57Q7.13 22 5.89 22Q4.88 22 3.96 21.7Q3.79 21.65 3.62 21.58C2.91 21.3 2.28 20.87 1.73 20.3C1.19 19.73 0.77 19 0.46 18.12Q0 16.78 0 14.96L3.48 14.96Q3.48 15.93 3.63 16.62C3.74 17.07 3.89 17.43 4.11 17.7Q4.28 17.91 4.49 18.07Q4.67 18.21 4.89 18.31C5.21 18.43 5.57 18.5 5.98 18.5C6.44 18.5 6.8 18.39 7.07 18.17C7.35 17.96 7.55 17.67 7.66 17.31Q7.84 16.76 7.84 16.07ZM21.45 0.3L24.92 0.3L24.92 15C24.92 16.65 24.67 17.99 24.18 19.03C23.7 20.06 23.03 20.81 22.17 21.29Q22.12 21.32 22.07 21.34Q20.82 22 19.23 22C18.12 22 17.14 21.76 16.27 21.29C15.41 20.81 14.74 20.06 14.25 19.03Q13.54 17.47 13.54 15L13.54 0.3L17.01 0.3L17.01 15C17.01 15.93 17.09 16.65 17.26 17.15C17.43 17.65 17.68 17.99 18.01 18.17C18.34 18.35 18.75 18.44 19.23 18.44C19.73 18.44 20.13 18.35 20.45 18.17C20.77 17.99 21.02 17.65 21.18 17.15C21.36 16.65 21.45 15.93 21.45 15L21.45 0.3ZM33.48 14.16L31.05 14.16L31.05 21.7L27.58 21.7L27.58 0.3L33.48 0.3C34.64 0.3 35.65 0.61 36.49 1.21C37.33 1.82 37.97 2.66 38.41 3.73Q39.09 5.31 39.09 7.37Q39.09 9.44 38.41 10.97C37.97 11.98 37.33 12.77 36.49 13.32C35.65 13.88 34.64 14.16 33.48 14.16ZM44.05 3.87L44.05 8.97L49.49 8.97L49.49 12.43L44.05 12.43L44.05 18.14L50.5 18.14L50.5 21.7L40.57 21.7L40.57 0.3L50.47 0.3L50.47 3.87L44.05 3.87ZM53.4 0.3L58.95 0.3Q60.68 0.3 61.91 1.04C62.73 1.53 63.35 2.25 63.79 3.21Q64.44 4.65 64.44 6.77C64.44 7.93 64.32 8.92 64.06 9.74C63.81 10.55 63.45 11.23 62.98 11.78C62.67 12.14 62.32 12.45 61.93 12.71L64.98 21.5L64.98 21.7L61.26 21.7L58.64 13.85L56.88 13.85L56.88 21.7L53.4 21.7L53.4 0.3ZM83.71 0.3L86.34 9.94L88.96 0.3L92.75 0.3L88.09 13.93L88.09 21.7L84.58 21.7L84.58 13.93L79.92 0.3L83.71 0.3ZM94.36 0.3L98.65 0.3L102.18 14.94L105.7 0.3L110 0.3L110 21.7L106.64 21.7L106.64 14.41L106.87 6.97L103.48 21.7L100.88 21.7L97.52 8.11L97.72 14.41L97.72 21.7L94.36 21.7L94.36 0.3ZM31.05 10.59L33.48 10.59C33.97 10.59 34.37 10.45 34.68 10.18C35 9.91 35.23 9.53 35.37 9.05C35.51 8.56 35.58 8.01 35.58 7.4C35.58 6.78 35.51 6.21 35.36 5.68C35.21 5.14 34.99 4.71 34.68 4.37C34.38 4.04 33.98 3.87 33.48 3.87L31.05 3.87L31.05 10.59ZM56.88 10.28L58.85 10.28C59.33 10.28 59.72 10.15 60.03 9.9Q60.51 9.5 60.73 8.8C60.89 8.32 60.97 7.76 60.97 7.12C60.97 6.45 60.9 5.87 60.76 5.39C60.62 4.9 60.4 4.53 60.1 4.27C59.81 4.01 59.42 3.87 58.95 3.87L56.88 3.87L56.88 10.28Z" fill="#FFFFFF" fill-opacity="1.000000" fill-rule="evenodd"/>
</svg>
