<svg width="25" height="26" viewBox="0 0 25 26" fill="none" xmlns="http://www.w3.org/2000/svg">
<path d="M12.5 0.401855C5.59692 0.401855 0 5.99878 0 12.9019C0 19.8049 5.59692 25.4019 12.5 25.4019C19.4031 25.4019 25 19.8049 25 12.9019C25 5.99878 19.4031 0.401855 12.5 0.401855Z" fill="white"/>
<path d="M12.6803 7.29089C13.5788 7.29089 14.3095 8.04519 14.3095 8.97271C14.3095 9.89742 13.5788 10.6517 12.6803 10.6517C11.7818 10.6517 11.0511 9.89742 11.0511 8.97271C11.0511 8.04519 11.7818 7.29089 12.6803 7.29089ZM12.6803 13.032C14.8507 13.032 16.6152 11.2105 16.6152 8.97271C16.6152 6.73215 14.8507 4.91064 12.6803 4.91064C10.5098 4.91064 8.748 6.73215 8.748 8.97271C8.748 11.2105 10.5098 13.032 12.6803 13.032ZM14.2716 16.3453C15.0726 16.1553 15.8439 15.8285 16.5557 15.3675C17.0942 15.0183 17.2566 14.2836 16.9183 13.7276C16.5773 13.1689 15.8683 13.0012 15.327 13.3532C13.7168 14.3981 11.6437 14.3981 10.0308 13.3532C9.49223 13.0012 8.78047 13.1689 8.44219 13.7276C8.1039 14.2836 8.26628 15.0183 8.80483 15.3675C9.51659 15.8285 10.2879 16.1553 11.089 16.3453L8.88873 18.6138C8.43948 19.0776 8.43948 19.8319 8.88873 20.2956C9.11606 20.5275 9.40834 20.6448 9.70332 20.6448C9.99831 20.6448 10.2933 20.5275 10.5206 20.2956L12.6803 18.0662L14.8426 20.2956C15.2918 20.7622 16.0198 20.7622 16.4718 20.2956C16.921 19.8319 16.921 19.0776 16.4718 18.6138L14.2716 16.3453Z" fill="#030A1A"/>
</svg>
