<svg width="25" height="26" viewBox="0 0 25 26" fill="none" xmlns="http://www.w3.org/2000/svg">
<path d="M12.5 0.401855C5.59692 0.401855 0 5.99878 0 12.9019C0 19.8049 5.59692 25.4019 12.5 25.4019C19.4031 25.4019 25 19.8049 25 12.9019C25 5.99878 19.4031 0.401855 12.5 0.401855Z" fill="white"/>
<path d="M13.851 5.95752C13.4056 5.95752 12.9877 6.18345 12.7196 6.50927C12.4516 6.83509 12.3038 7.23225 12.1962 7.65082C12.0252 8.32386 11.9724 9.07063 11.9597 9.74367C10.7081 9.82691 9.57457 10.1979 8.63316 10.7711C8.2511 10.45 7.79095 10.2716 7.3498 10.2764C6.84743 10.2811 6.3704 10.4976 6.01579 10.9423C5.33823 11.7913 5.41632 13.1802 6.20154 14.0055C6.15299 14.2599 6.1171 14.5215 6.1171 14.7855C6.1171 17.5823 8.9751 19.8464 12.5001 19.8464C16.0251 19.8464 18.8831 17.58 18.8831 14.7855C18.8831 14.5215 18.8472 14.2599 18.7987 14.0055C19.5839 13.1802 19.662 11.7913 18.9844 10.9423C18.6298 10.4976 18.1528 10.2811 17.6504 10.2764C17.2093 10.2716 16.7491 10.45 16.3671 10.7711C15.4299 10.2003 14.3027 9.82929 13.0574 9.74367C13.0742 9.12295 13.1186 8.47845 13.2431 7.99329C13.3212 7.68887 13.4141 7.4677 13.5133 7.34641C13.6125 7.22512 13.6843 7.17518 13.851 7.17518C14.212 7.17518 14.2584 7.29171 14.4758 7.57472C14.5856 7.71741 14.7122 7.89578 14.9148 8.06939C15.1175 8.243 15.4172 8.39283 15.7423 8.39283V7.17518C15.6515 7.17518 15.6346 7.1728 15.5734 7.1181C15.5122 7.0634 15.4278 6.93735 15.3032 6.77563C15.0542 6.44981 14.5708 5.95752 13.851 5.95752ZM17.3634 6.07167C16.5233 6.07167 15.8436 6.83747 15.8436 7.784C15.8436 8.73054 16.5233 9.49633 17.3634 9.49633C18.2034 9.49633 18.8831 8.73054 18.8831 7.784C18.8831 6.83747 18.2034 6.07167 17.3634 6.07167ZM17.3634 6.6805C17.9037 6.6805 18.3428 7.17518 18.3428 7.784C18.3428 8.39283 17.9037 8.8875 17.3634 8.8875C16.823 8.8875 16.3839 8.39283 16.3839 7.784C16.3839 7.17518 16.823 6.6805 17.3634 6.6805ZM12.5001 10.695C15.4911 10.695 18.0219 12.5714 18.0219 14.7855C18.0219 17.002 15.4911 18.8761 12.5001 18.8761C9.50913 18.8761 6.9783 17.002 6.9783 14.7855C6.9783 12.5714 9.50913 10.695 12.5001 10.695ZM7.36669 11.2467C7.51655 11.2491 7.67275 11.2871 7.82262 11.3609C7.28015 11.8246 6.84955 12.3573 6.55615 12.959C6.35351 12.4882 6.40839 11.9007 6.65746 11.5892C6.83899 11.3609 7.09017 11.2443 7.36669 11.2467ZM17.6335 11.2467C17.91 11.2443 18.1612 11.3609 18.3428 11.5892C18.5918 11.9007 18.6467 12.4882 18.4441 12.959C18.1507 12.3573 17.7201 11.8246 17.1776 11.3609C17.3275 11.2871 17.4837 11.2491 17.6335 11.2467ZM10.3387 12.7688C9.79831 12.7688 9.35927 13.2635 9.35927 13.8723C9.35927 14.4811 9.79831 14.9758 10.3387 14.9758C10.879 14.9758 11.3181 14.4811 11.3181 13.8723C11.3181 13.2635 10.879 12.7688 10.3387 12.7688ZM14.6616 12.7688C14.1212 12.7688 13.6821 13.2635 13.6821 13.8723C13.6821 14.4811 14.1212 14.9758 14.6616 14.9758C15.2019 14.9758 15.641 14.4811 15.641 13.8723C15.641 13.2635 15.2019 12.7688 14.6616 12.7688ZM9.81519 16.5169C10.1593 17.3183 11.2231 18.096 12.5001 18.096C13.7771 18.096 14.8579 17.3183 15.2019 16.5169C14.5771 16.9711 13.5914 17.2779 12.5001 17.2779C11.4088 17.2779 10.44 16.9711 9.81519 16.5169Z" fill="#030A1A"/>
</svg>
