<svg width="25" height="26" viewBox="0 0 25 26" fill="none" xmlns="http://www.w3.org/2000/svg">
<path d="M12.5 0.401855C5.59692 0.401855 0 5.99878 0 12.9019C0 19.8049 5.59692 25.4019 12.5 25.4019C19.4031 25.4019 25 19.8049 25 12.9019C25 5.99878 19.4031 0.401855 12.5 0.401855Z" fill="white"/>
<path d="M13.7227 15.4536C14.1654 15.3105 14.7322 16.3982 15.3355 16.8145C15.7884 17.1299 16.1352 17.0618 16.1352 17.0618L17.7434 17.0386C17.7434 17.0386 18.5838 16.9868 18.1865 16.3191C18.1536 16.2635 17.9536 15.8241 16.9895 14.9197C15.9815 13.9737 16.1181 14.127 17.3317 12.4915C18.0712 11.4945 18.3671 10.8856 18.2745 10.6263C18.1856 10.3767 17.6424 10.4415 17.6424 10.4415L15.8305 10.454C15.6541 10.4545 15.5045 10.5092 15.4365 10.6925C15.4351 10.6944 15.1489 11.464 14.7674 12.1183C13.9612 13.5023 13.6394 13.5759 13.506 13.4893C13.1999 13.2888 13.2773 12.685 13.2773 12.2558C13.2773 10.9143 13.4773 10.355 12.8855 10.2105C12.6878 10.1623 12.5433 10.1308 12.0391 10.1262C11.3945 10.1165 10.8472 10.1262 10.5369 10.2786C10.3309 10.3818 10.173 10.6082 10.2688 10.6212C10.3892 10.6374 10.6592 10.6953 10.8036 10.8926C10.9893 11.1482 10.9838 11.721 10.9838 11.721C10.9838 11.721 11.0898 13.3004 10.7337 13.4963C10.4892 13.6306 10.1549 13.3565 9.43578 12.0997C9.06858 11.457 8.79121 10.7467 8.79121 10.7467C8.79121 10.7467 8.7375 10.6147 8.64026 10.5425C8.52449 10.4568 8.36243 10.4295 8.36243 10.4295L6.64265 10.4406C6.64265 10.4406 6.38427 10.448 6.28935 10.5619C6.20507 10.6629 6.2824 10.8713 6.2824 10.8713C6.2824 10.8713 7.62942 14.0575 9.15471 15.6624C10.5531 17.1359 12.1423 17.0382 12.1423 17.0382H12.8624C12.8624 17.0382 13.0795 17.0132 13.1907 16.8937C13.2944 16.7826 13.2898 16.5737 13.2898 16.5737C13.2898 16.5737 13.2754 15.5972 13.7227 15.4536Z" fill="#030A1A"/>
</svg>
