<svg width="32" height="32" viewBox="0 0 32 32" fill="none" xmlns="http://www.w3.org/2000/svg">
<rect width="32" height="32" fill="url(#paint0_linear_17034_130)"/>
<path d="M15.8529 25.8125C14.7849 25.8125 13.8587 25.6487 13.074 25.3211C12.2894 24.9934 11.6901 24.4146 11.276 23.5846C10.8837 22.7546 10.6875 21.5861 10.6875 20.079V18.965C11.2106 18.965 11.7446 18.965 12.2894 18.965C12.8343 18.965 13.3683 18.965 13.8913 18.965V20.3411C13.8913 21.2585 13.9785 21.9683 14.1529 22.4707C14.3272 22.973 14.567 23.3225 14.8721 23.5191C15.1772 23.6938 15.526 23.7812 15.9183 23.7812C16.5503 23.7812 17.0516 23.5737 17.4221 23.1587C17.8144 22.7219 18.0106 21.9137 18.0106 20.7342C18.0106 19.8606 17.8798 19.2053 17.6183 18.7685C17.3567 18.3316 16.9426 17.9822 16.376 17.7201C15.8311 17.4361 15.1228 17.1194 14.251 16.7699C13.5317 16.4423 12.9106 16.0601 12.3875 15.6232C11.8644 15.1864 11.4721 14.6294 11.2106 13.9523C10.949 13.2752 10.8183 12.4343 10.8183 11.4296C10.8183 10.2064 10.9708 9.21261 11.276 8.44814C11.6029 7.66183 12.1478 7.09394 12.9106 6.74447C13.6734 6.37316 14.6978 6.1875 15.9837 6.1875C17.6401 6.1875 18.9042 6.56973 19.776 7.3342C20.6478 8.07683 21.0837 9.16893 21.0837 10.6105V12.8711C20.5824 12.8711 20.0702 12.8711 19.5471 12.8711C19.0458 12.8711 18.5337 12.8711 18.0106 12.8711V11.5279C18.0106 10.5231 17.8471 9.80234 17.5202 9.3655C17.2151 8.90682 16.7138 8.67748 16.0163 8.67748C15.2971 8.67748 14.774 8.8959 14.4471 9.33274C14.142 9.74774 13.9894 10.4139 13.9894 11.3313C13.9894 12.1176 14.142 12.7292 14.4471 13.166C14.7522 13.581 15.1446 13.9086 15.624 14.1489C16.1253 14.3892 16.6375 14.6076 17.1606 14.8042C18.1413 15.1755 18.9369 15.5577 19.5471 15.9509C20.1574 16.344 20.6042 16.8682 20.8875 17.5235C21.1708 18.1787 21.3125 19.107 21.3125 20.3083C21.3125 21.6844 21.0837 22.7765 20.626 23.5846C20.1901 24.3709 19.558 24.9388 18.7298 25.2883C17.9234 25.6378 16.9644 25.8125 15.8529 25.8125Z" fill="white"/>
<defs>
<linearGradient id="paint0_linear_17034_130" x1="6.32768" y1="9.62149e-06" x2="33.8513" y2="3.40621" gradientUnits="userSpaceOnUse">
<stop stop-color="#ED0233"/>
<stop offset="1" stop-color="#003EB7"/>
</linearGradient>
</defs>
</svg>
